<svg xmlns="http://www.w3.org/2000/svg" width="33" height="33" viewBox="0 0 33 33" fill="none">
    <path
        d="M26.6748 4.42285H23.6748V3.42285C23.6748 3.15764 23.5694 2.90328 23.3819 2.71574C23.1944 2.52821 22.94 2.42285 22.6748 2.42285C22.4096 2.42285 22.1552 2.52821 21.9677 2.71574C21.7802 2.90328 21.6748 3.15764 21.6748 3.42285V4.42285H11.6748V3.42285C11.6748 3.15764 11.5694 2.90328 11.3819 2.71574C11.1944 2.52821 10.94 2.42285 10.6748 2.42285C10.4096 2.42285 10.1552 2.52821 9.9677 2.71574C9.78016 2.90328 9.6748 3.15764 9.6748 3.42285V4.42285H6.6748C6.14437 4.42285 5.63566 4.63357 5.26059 5.00864C4.88552 5.38371 4.6748 5.89242 4.6748 6.42285V26.4229C4.6748 26.9533 4.88552 27.462 5.26059 27.8371C5.63566 28.2121 6.14437 28.4229 6.6748 28.4229H26.6748C27.2052 28.4229 27.7139 28.2121 28.089 27.8371C28.4641 27.462 28.6748 26.9533 28.6748 26.4229V6.42285C28.6748 5.89242 28.4641 5.38371 28.089 5.00864C27.7139 4.63357 27.2052 4.42285 26.6748 4.42285ZM11.1748 23.4229C10.8781 23.4229 10.5881 23.3349 10.3414 23.1701C10.0948 23.0052 9.90252 22.771 9.78899 22.4969C9.67545 22.2228 9.64575 21.9212 9.70363 21.6302C9.7615 21.3392 9.90437 21.072 10.1141 20.8622C10.3239 20.6524 10.5912 20.5096 10.8822 20.4517C11.1731 20.3938 11.4747 20.4235 11.7488 20.537C12.0229 20.6506 12.2572 20.8428 12.422 21.0895C12.5868 21.3362 12.6748 21.6262 12.6748 21.9229C12.6748 22.3207 12.5168 22.7022 12.2355 22.9835C11.9542 23.2648 11.5726 23.4229 11.1748 23.4229ZM16.6748 23.4229C16.3781 23.4229 16.0881 23.3349 15.8414 23.1701C15.5948 23.0052 15.4025 22.771 15.289 22.4969C15.1755 22.2228 15.1457 21.9212 15.2036 21.6302C15.2615 21.3392 15.4044 21.072 15.6141 20.8622C15.8239 20.6524 16.0912 20.5096 16.3822 20.4517C16.6731 20.3938 16.9747 20.4235 17.2488 20.537C17.5229 20.6506 17.7572 20.8428 17.922 21.0895C18.0868 21.3362 18.1748 21.6262 18.1748 21.9229C18.1748 22.3207 18.0168 22.7022 17.7355 22.9835C17.4542 23.2648 17.0726 23.4229 16.6748 23.4229ZM16.6748 18.4229C16.3781 18.4229 16.0881 18.3349 15.8414 18.1701C15.5948 18.0052 15.4025 17.771 15.289 17.4969C15.1755 17.2228 15.1457 16.9212 15.2036 16.6302C15.2615 16.3392 15.4044 16.072 15.6141 15.8622C15.8239 15.6524 16.0912 15.5096 16.3822 15.4517C16.6731 15.3938 16.9747 15.4235 17.2488 15.537C17.5229 15.6506 17.7572 15.8428 17.922 16.0895C18.0868 16.3362 18.1748 16.6262 18.1748 16.9229C18.1748 17.3207 18.0168 17.7022 17.7355 17.9835C17.4542 18.2648 17.0726 18.4229 16.6748 18.4229ZM22.1748 23.4229C21.8781 23.4229 21.5881 23.3349 21.3414 23.1701C21.0948 23.0052 20.9025 22.771 20.789 22.4969C20.6755 22.2228 20.6457 21.9212 20.7036 21.6302C20.7615 21.3392 20.9044 21.072 21.1141 20.8622C21.3239 20.6524 21.5912 20.5096 21.8822 20.4517C22.1731 20.3938 22.4747 20.4235 22.7488 20.537C23.0229 20.6506 23.2572 20.8428 23.422 21.0895C23.5868 21.3362 23.6748 21.6262 23.6748 21.9229C23.6748 22.3207 23.5168 22.7022 23.2355 22.9835C22.9542 23.2648 22.5726 23.4229 22.1748 23.4229ZM22.1748 18.4229C21.8781 18.4229 21.5881 18.3349 21.3414 18.1701C21.0948 18.0052 20.9025 17.771 20.789 17.4969C20.6755 17.2228 20.6457 16.9212 20.7036 16.6302C20.7615 16.3392 20.9044 16.072 21.1141 15.8622C21.3239 15.6524 21.5912 15.5096 21.8822 15.4517C22.1731 15.3938 22.4747 15.4235 22.7488 15.537C23.0229 15.6506 23.2572 15.8428 23.422 16.0895C23.5868 16.3362 23.6748 16.6262 23.6748 16.9229C23.6748 17.3207 23.5168 17.7022 23.2355 17.9835C22.9542 18.2648 22.5726 18.4229 22.1748 18.4229ZM26.6748 10.4229H6.6748V6.42285H9.6748V7.42285C9.6748 7.68807 9.78016 7.94242 9.9677 8.12996C10.1552 8.31749 10.4096 8.42285 10.6748 8.42285C10.94 8.42285 11.1944 8.31749 11.3819 8.12996C11.5694 7.94242 11.6748 7.68807 11.6748 7.42285V6.42285H21.6748V7.42285C21.6748 7.68807 21.7802 7.94242 21.9677 8.12996C22.1552 8.31749 22.4096 8.42285 22.6748 8.42285C22.94 8.42285 23.1944 8.31749 23.3819 8.12996C23.5694 7.94242 23.6748 7.68807 23.6748 7.42285V6.42285H26.6748V10.4229Z"
        fill="#50B4AA" />
</svg>