<svg xmlns="http://www.w3.org/2000/svg" width="33" height="33" viewBox="0 0 33 33" fill="none">
    <path
        d="M29.4423 7.7816C29.3484 7.66927 29.231 7.57892 29.0984 7.51693C28.9658 7.45494 28.8212 7.42283 28.6748 7.42285H8.5098L7.7498 3.2441C7.70794 3.01369 7.58654 2.80527 7.40677 2.65519C7.22699 2.50511 7.00024 2.42289 6.76605 2.42285H3.6748C3.40959 2.42285 3.15523 2.52821 2.9677 2.71574C2.78016 2.90328 2.6748 3.15764 2.6748 3.42285C2.6748 3.68807 2.78016 3.94242 2.9677 4.12996C3.15523 4.31749 3.40959 4.42285 3.6748 4.42285H5.9248L9.1198 21.9591C9.21392 22.4792 9.44376 22.9652 9.78605 23.3679C9.31361 23.8091 8.97262 24.3726 8.80088 24.9959C8.62914 25.6191 8.63336 26.2777 8.81309 26.8987C8.99282 27.5197 9.34102 28.0788 9.81909 28.5139C10.2972 28.9491 10.8864 29.2434 11.5215 29.3641C12.1566 29.4848 12.8127 29.4273 13.4171 29.1979C14.0215 28.9685 14.5506 28.5762 14.9456 28.0644C15.3407 27.5527 15.5862 26.9416 15.6552 26.2988C15.7241 25.656 15.6136 25.0067 15.3361 24.4229H21.0136C20.7898 24.8912 20.6741 25.4038 20.6748 25.9229C20.6748 26.6151 20.8801 27.2918 21.2647 27.8673C21.6492 28.4429 22.1959 28.8915 22.8354 29.1564C23.475 29.4213 24.1787 29.4906 24.8576 29.3556C25.5366 29.2206 26.1602 28.8872 26.6497 28.3977C27.1392 27.9082 27.4725 27.2846 27.6076 26.6057C27.7426 25.9267 27.6733 25.223 27.4084 24.5835C27.1435 23.9439 26.6949 23.3973 26.1193 23.0127C25.5437 22.6281 24.867 22.4229 24.1748 22.4229H12.0711C11.8369 22.4228 11.6101 22.3406 11.4303 22.1905C11.2506 22.0404 11.1292 21.832 11.0873 21.6016L10.6911 19.4229H25.1911C25.8936 19.4228 26.5739 19.1761 27.1132 18.7258C27.6525 18.2756 28.0167 17.6503 28.1423 16.9591L29.6623 8.6016C29.688 8.45715 29.6817 8.30881 29.6436 8.1671C29.6056 8.02538 29.5369 7.89377 29.4423 7.7816ZM13.6748 25.9229C13.6748 26.2195 13.5868 26.5095 13.422 26.7562C13.2572 27.0029 13.0229 27.1951 12.7488 27.3087C12.4747 27.4222 12.1731 27.4519 11.8822 27.394C11.5912 27.3362 11.3239 27.1933 11.1141 26.9835C10.9044 26.7737 10.7615 26.5065 10.7036 26.2155C10.6457 25.9245 10.6755 25.6229 10.789 25.3488C10.9025 25.0747 11.0948 24.8405 11.3414 24.6756C11.5881 24.5108 11.8781 24.4229 12.1748 24.4229C12.5726 24.4229 12.9542 24.5809 13.2355 24.8622C13.5168 25.1435 13.6748 25.525 13.6748 25.9229ZM25.6748 25.9229C25.6748 26.2195 25.5868 26.5095 25.422 26.7562C25.2572 27.0029 25.0229 27.1951 24.7488 27.3087C24.4747 27.4222 24.1731 27.4519 23.8822 27.394C23.5912 27.3362 23.3239 27.1933 23.1141 26.9835C22.9044 26.7737 22.7615 26.5065 22.7036 26.2155C22.6457 25.9245 22.6755 25.6229 22.789 25.3488C22.9025 25.0747 23.0948 24.8405 23.3414 24.6756C23.5881 24.5108 23.8781 24.4229 24.1748 24.4229C24.5726 24.4229 24.9542 24.5809 25.2355 24.8622C25.5168 25.1435 25.6748 25.525 25.6748 25.9229Z"
        fill="#50B4AA" />
</svg>