<svg xmlns="http://www.w3.org/2000/svg" width="23" height="23" viewBox="0 0 23 23" fill="none">
  <path d="M19.973 6.66748L16.1027 2.79805C15.974 2.66935 15.8212 2.56725 15.6531 2.4976C15.4849 2.42794 15.3047 2.39209 15.1227 2.39209C14.9408 2.39209 14.7605 2.42794 14.5924 2.4976C14.4243 2.56725 14.2715 2.66935 14.1428 2.79805L3.46379 13.4771C3.33456 13.6053 3.23211 13.7579 3.16238 13.9261C3.09265 14.0942 3.05704 14.2745 3.05762 14.4566V18.3269C3.05762 18.6944 3.20361 19.0468 3.46347 19.3067C3.72333 19.5665 4.07578 19.7125 4.44327 19.7125H18.9926C19.1764 19.7125 19.3526 19.6395 19.4825 19.5096C19.6124 19.3797 19.6854 19.2034 19.6854 19.0197C19.6854 18.8359 19.6124 18.6597 19.4825 18.5298C19.3526 18.3999 19.1764 18.3269 18.9926 18.3269H10.2734L19.973 8.62731C20.1017 8.49863 20.2038 8.34587 20.2734 8.17773C20.3431 8.0096 20.3789 7.82939 20.3789 7.64739C20.3789 7.4654 20.3431 7.28519 20.2734 7.11705C20.2038 6.94892 20.1017 6.79615 19.973 6.66748ZM8.31357 18.3269H4.44327V14.4566L12.0644 6.83549L15.9346 10.7058L8.31357 18.3269ZM16.9141 9.7263L13.0447 5.85601L15.1232 3.77753L18.9926 7.64783L16.9141 9.7263Z" fill="#C1C1C1"/>
</svg>