<svg xmlns="http://www.w3.org/2000/svg" width="33" height="33" viewBox="0 0 33 33" fill="none">
    <path
        d="M28.6748 15.4229V27.4229C28.6748 27.6881 28.5694 27.9425 28.3819 28.13C28.1944 28.3175 27.94 28.4229 27.6748 28.4229H20.6748C20.4096 28.4229 20.1552 28.3175 19.9677 28.13C19.7802 27.9425 19.6748 27.6881 19.6748 27.4229V20.9229C19.6748 20.7903 19.6221 20.6631 19.5284 20.5693C19.4346 20.4756 19.3074 20.4229 19.1748 20.4229H14.1748C14.0422 20.4229 13.915 20.4756 13.8213 20.5693C13.7275 20.6631 13.6748 20.7903 13.6748 20.9229V27.4229C13.6748 27.6881 13.5694 27.9425 13.3819 28.13C13.1944 28.3175 12.94 28.4229 12.6748 28.4229H5.6748C5.40959 28.4229 5.15523 28.3175 4.9677 28.13C4.78016 27.9425 4.6748 27.6881 4.6748 27.4229V15.4229C4.67505 14.8926 4.88593 14.384 5.26105 14.0092L15.2611 4.00915C15.6361 3.63436 16.1446 3.42383 16.6748 3.42383C17.205 3.42383 17.7135 3.63436 18.0886 4.00915L28.0886 14.0092C28.4637 14.384 28.6746 14.8926 28.6748 15.4229Z"
        fill="#50B4AA" />
</svg>