<svg width="97" height="97" xmlns="http://www.w3.org/2000/svg"
    xmlns:xlink="http://www.w3.org/1999/xlink" xml:space="preserve" overflow="hidden"><g transform="translate(-909 -21)"><g><g><g><g><path d="M974 52C974 60.8366 966.837 68 958 68 949.163 68 942 60.8366 942 52 942 43.1634 949.163 36 958 36 966.837 36 974 43.1634 974 52Z" fill="#A8C4BC" fill-rule="nonzero" fill-opacity="1"/><path d="M990 104 990 88C990 85.6 988.8 83.2 986.8 81.6 982.4 78 976.8 75.6 971.2 74 967.2 72.8 962.8 72 958 72 953.6 72 949.2 72.8 944.8 74 939.2 75.6 933.6 78.4 929.2 81.6 927.2 83.2 926 85.6 926 88L926 104 990 104Z" fill="#A8C4BC" fill-rule="nonzero" fill-opacity="1"/></g></g></g></g></g></svg>